<svg xmlns="http://www.w3.org/2000/svg" width="58" height="70" viewBox="0 0 58 70">
  <metadata><?xpacket begin="﻿" id="W5M0MpCehiHzreSzNTczkc9d"?>
<x:xmpmeta xmlns:x="adobe:ns:meta/" x:xmptk="Adobe XMP Core 5.6-c138 79.159824, 2016/09/14-01:09:01        ">
   <rdf:RDF xmlns:rdf="http://www.w3.org/1999/02/22-rdf-syntax-ns#">
      <rdf:Description rdf:about=""/>
   </rdf:RDF>
</x:xmpmeta>
                                                                                                    
                                                                                                    
                                                                                                    
                                                                                                    
                                                                                                    
                                                                                                    
                                                                                                    
                                                                                                    
                                                                                                    
                                                                                                    
                                                                                                    
                                                                                                    
                                                                                                    
                                                                                                    
                                                                                                    
                                                                                                    
                                                                                                    
                                                                                                    
                                                                                                    
                                                                                                    
                           
<?xpacket end="w"?></metadata>
<defs>
    <style>
      .cls-1 {
        fill: #00c3ba;
        fill-rule: evenodd;
      }
    </style>
  </defs>
  <path id="Прямоугольник_14_копия_9" data-name="Прямоугольник 14 копия 9" class="cls-1" d="M431,2227.5h1.758V2280H431v-52.5Zm13.182,0h1.757V2280h-1.757v-52.5Zm14.06,0H460V2280h-1.758v-52.5Zm-27.242,0h58v3.5H431v-3.5Zm0,49h58v3.5H431v-3.5Zm0-23.63h57.121v1.75H431v-1.75Zm43.061-25.37h1.757V2280h-1.757v-52.5Zm-32.516-14h2.637l-10.546,14H431Zm13.182,0h2.637l-10.546,14h-2.636Zm14.061,0h2.636l-10.545,14h-2.637Zm-24.606-3.5H489v3.5H441.545Zm39.545,3.5h2.637l-10.546,14h-2.636Zm1.758-3.5H489v70h-3.515v-70Z" transform="translate(-431 -2210)"/>
</svg>
